<svg id="Layer_1" data-name="Layer 1" xmlns="http://www.w3.org/2000/svg" viewBox="0 0 2261.77 1478.11"><defs><style>.cls-1,.cls-2,.cls-3,.cls-4{fill:none;stroke-miterlimit:10;}.cls-1,.cls-3{stroke:#32a1ff;}.cls-1,.cls-2,.cls-4{stroke-linecap:round;}.cls-1,.cls-2{stroke-width:27.88px;}.cls-2,.cls-4{stroke:#2f2e7c;}.cls-3,.cls-4{stroke-width:15px;}.cls-5{fill:#1d2d9b;}</style></defs><path class="cls-1" d="M1206.87,487.62l-159.4-170.57c-42.31-38-103.08-45.13-149.56-18.48C837.19,333.38,835.47,405.93,835.44,409V748.07c0,57.4,49.79,113,107.08,123.8,49.8,9.38,105.59-22,145-77"/><path class="cls-2" d="M1054.9,668.5l159.4,170.58c42.31,38,103.08,45.13,149.57,18.48,60.72-34.81,62.44-107.36,62.46-110.42V408.06c0-57.41-49.79-113-107.08-123.81-49.79-9.38-105.59,22-145,77"/><path class="cls-2" d="M1049.33,562,1264.6,792.83c2.6,3,19.66,22.11,44.61,21.19,26.3-1,50.71-23.75,55.77-55.77q-.84-169-1.67-338c.32-46.62-37.45-80.74-74.17-78.07-17,1.23-40,15-54.77,29.24a117,117,0,0,0-15.87,18.84"/><path class="cls-1" d="M1212.73,594.18,997.46,363.29c-2.6-3-19.66-22.1-44.61-21.19-26.3,1-50.71,23.75-55.77,55.77q.84,169,1.67,338c-.32,46.63,37.45,80.74,74.17,78.08,17-1.23,40-15.06,54.76-29.25a115.78,115.78,0,0,0,15.88-18.84"/><circle class="cls-3" cx="1229.04" cy="506.6" r="22.65"/><circle class="cls-3" cx="1233" cy="616" r="22.65"/><circle class="cls-4" cx="1029.29" cy="539.93" r="22.65"/><circle class="cls-4" cx="1033.25" cy="645.33" r="22.65"/><path class="cls-5" d="M154.5,1197.87V970.65h43.82l104.52,156.78V970.65h43.82v227.22H302.84L198.32,1041.41v156.46Z"/><path class="cls-5" d="M468.06,1201.77q-23.7,0-42.36-10.88a79.1,79.1,0,0,1-29.54-30.18q-10.87-19.32-10.87-44.31,0-25.65,10.87-45a78.89,78.89,0,0,1,29.7-30.19q18.83-10.87,42.52-10.87t42.2,10.87a79.86,79.86,0,0,1,29.38,30q10.88,19.15,10.87,44.79,0,25.32-10.87,44.64a79.17,79.17,0,0,1-29.54,30.18Q491.75,1201.77,468.06,1201.77Zm0-38a35.25,35.25,0,0,0,19-5.36q8.59-5.36,14-16.06t5.35-26.3q0-15.9-5.19-26.45t-13.63-15.91a34.44,34.44,0,0,0-18.83-5.35,36.65,36.65,0,0,0-19.48,5.35,37.31,37.31,0,0,0-14,15.91q-5.2,10.55-5.2,26.45,0,15.59,5,26.3t13.8,16.06A36,36,0,0,0,468.06,1163.79Z"/><path class="cls-5" d="M649.83,1201.77q-20.13,0-34.24-8.28t-21.43-24.35q-7.3-16.07-7.3-39.76v-95.11h43.5v90.89q0,19.8,8.27,29.7t25.48,9.9a38.1,38.1,0,0,0,19.64-5,34.54,34.54,0,0,0,13.47-14.61q4.88-9.57,4.87-23.2v-87.65h43.82v163.6H707.29L704,1171.25a56.79,56.79,0,0,1-21.26,22.24Q669,1201.77,649.83,1201.77Z"/><path class="cls-5" d="M855.3,1201.77q-22.72,0-39.11-7.14T790.38,1175a53.79,53.79,0,0,1-10.71-28.73h43.82a28.64,28.64,0,0,0,5.2,11,26,26,0,0,0,10.38,8.11,37.74,37.74,0,0,0,15.58,2.92q8.77,0,14.45-2.43a18.32,18.32,0,0,0,8.44-6.66,15.77,15.77,0,0,0,2.76-8.76q0-6.81-4.06-10.39a34.7,34.7,0,0,0-11.52-6.16,123.73,123.73,0,0,0-18.18-4.55,226.86,226.86,0,0,1-22.88-5.68,86.34,86.34,0,0,1-20-8.76,43.37,43.37,0,0,1-14-13.31q-5.19-8-5.19-20a45.81,45.81,0,0,1,7.79-26q7.8-11.68,22.89-18.51t35.54-6.81q29.87,0,47.07,13.31t20.45,36.68H877.05a19.22,19.22,0,0,0-8.6-12q-6.66-4.21-17.69-4.22-11.37,0-17.69,4.22t-6.33,10.71q0,4.54,4.06,8.11t11.52,6.17a150.33,150.33,0,0,0,18.18,4.87,257.24,257.24,0,0,1,33.11,8.93q14.28,5,22.39,14.28t8.12,26.78a47.55,47.55,0,0,1-8.44,27.75q-8.45,12.18-23.86,19T855.3,1201.77Z"/><path class="cls-5" d="M962.1,1197.87V970.65h43.82v227.22Z"/><path class="cls-5" d="M1049.74,1197.87v-163.6h38.63l2.92,26.94a58.34,58.34,0,0,1,21.58-22.55q13.8-8.28,33-8.28,20.45,0,34.41,8.6t21.42,24.83q7.47,16.23,7.47,39.6v94.46H1165.3v-90.56q0-19.15-8.44-29.54t-25.65-10.39a36.64,36.64,0,0,0-19.31,5.2,35.59,35.59,0,0,0-13.47,14.76q-4.87,9.59-4.87,23.54v87Z"/><path class="cls-5" d="M1292.54,1197.87l-60-163.6h46.09l40.9,122.38,40.57-122.38h45.45l-59.73,163.6Z"/><path class="cls-5" d="M1503.53,1201.77q-24.67,0-43.66-10.71a75.75,75.75,0,0,1-29.54-29.71q-10.55-19-10.55-43.65,0-25.65,10.55-45.12a79.63,79.63,0,0,1,29.38-30.84q18.82-11.35,43.82-11.36,24.35,0,42.52,10.71a75.75,75.75,0,0,1,28.24,28.73q10.07,18,10.06,41.38c0,2.17,0,4.6-.16,7.31s-.27,5.46-.48,8.27H1451.27v-26.94h88.94q-1-15.25-11.2-24.67t-25.16-9.41a40.31,40.31,0,0,0-20.61,5.36,38.74,38.74,0,0,0-14.77,15.58q-5.52,10.21-5.52,25.8v9.42q0,13.3,5,23.2a37.38,37.38,0,0,0,14.12,15.42,39.86,39.86,0,0,0,21.1,5.52q12.33,0,20-5a34,34,0,0,0,11.84-13.47h44.48a70.62,70.62,0,0,1-15.1,27.75,75.82,75.82,0,0,1-26.29,19.48Q1522.68,1201.77,1503.53,1201.77Z"/><path class="cls-5" d="M1620.38,1197.87v-163.6H1659l2.92,26.94a58.36,58.36,0,0,1,21.59-22.55q13.79-8.28,32.94-8.28,20.46,0,34.41,8.6t21.43,24.83q7.46,16.23,7.46,39.6v94.46h-43.82v-90.56q0-19.15-8.44-29.54t-25.64-10.39a36.67,36.67,0,0,0-19.32,5.2,35.73,35.73,0,0,0-13.47,14.76q-4.86,9.59-4.87,23.54v87Z"/><path class="cls-5" d="M1894.34,1197.87q-16.87,0-29.86-5.35a40.36,40.36,0,0,1-20.13-17.86q-7.14-12.48-7.14-34.24V1071H1809v-36.68h28.24l4.87-44.79h39v44.79h43.18V1071H1881v70.12q0,11,4.87,15.25t16.56,4.22h21.1v37.33Z"/><path class="cls-5" d="M2016.39,1201.77q-20.13,0-33.43-6.66t-20-17.85a47.75,47.75,0,0,1-6.65-24.83q0-15.26,7.63-26.62t23.21-17.69q15.57-6.33,39.6-6.33h39.92q0-12.33-3.08-20.12a22.35,22.35,0,0,0-10.06-11.69q-7-3.9-18.34-3.9-12.35,0-20.94,5.2t-10.55,16.55h-42.52q1.62-17.85,11.52-30.51t26.3-19.8q16.38-7.14,36.51-7.14,23.05,0,40.09,7.63t26,22.39q8.93,14.77,8.93,35.87v101.6h-36.68l-4.87-25a53.43,53.43,0,0,1-20.29,20.77,59,59,0,0,1-14.45,6A68.73,68.73,0,0,1,2016.39,1201.77ZM2027.1,1168a34.18,34.18,0,0,0,26.3-11.69,45.88,45.88,0,0,0,7.79-12.33,54.4,54.4,0,0,0,3.89-14.93v-.33h-33.43q-10.39,0-16.72,2.44a18.36,18.36,0,0,0-9.25,7,18.76,18.76,0,0,0-2.92,10.38,18.54,18.54,0,0,0,2.92,10.55,18,18,0,0,0,8.6,6.66A34.34,34.34,0,0,0,2027.1,1168Z"/></svg>